<svg id="Layer_2" data-name="Layer 2" xmlns="http://www.w3.org/2000/svg" viewBox="0 0 408.13 402.45"><title>Untitled-7</title><path d="M173,121.33C160.53,206.75,148,292.67,150.4,379c0.49,17.86,1.7,36.08,8.47,52.61,9.35,22.8,28.69,40.43,50.46,52s46,17.58,70.13,22.55c62.37,12.85,128.8,19,188.44-3.35,18.09-6.77,35.64-16.41,48-31.22,14.17-16.94,20.35-39.07,24.68-60.72a492.13,492.13,0,0,0,9.5-87.74c0.41-22.72-.85-45.92-8.92-67.17-14.85-39.13-51-66.63-89.37-83.39s-79.88-24.75-119.64-37.81c-19.59-6.44-39.25-14.21-59.87-14.51-28-.41-54.51,13.11-77.06,29.77-20.13,14.86-38.68,33.17-48.2,56.31" transform="translate(-144.67 -117.68)" fill="var(--nav-logo-color)"/><path d="M170.57,120.67c-7.55,51.76-15.09,103.57-19.39,155.72-2.16,26.23-3.49,52.55-3.56,78.87-0.07,23.76-.78,49.18,7,72,14.23,41.81,56,63.8,96.06,74.7a560.33,560.33,0,0,0,71,14c23.22,3.18,46.7,4.88,70.14,3.91s46.84-4.62,69.14-12c19.6-6.5,39.18-15.75,53.56-31,14.86-15.71,22.12-36.58,26.8-57.29a473.89,473.89,0,0,0,10.36-73.51c1.58-24.29,2.24-49.33-2.9-73.26a122.4,122.4,0,0,0-27.37-54.38c-28.1-32.56-68.49-50.38-108.72-62.89-23.53-7.32-47.49-13.18-71-20.48-22.38-6.94-44.65-16.78-68.42-17.38-22.33-.56-43.85,7.66-62.73,19-18.29,11-35.83,24.84-49.31,41.47A111.39,111.39,0,0,0,144.89,205c-1.24,2.93,3.07,5.48,4.32,2.52C157.46,188,171.7,172.07,188,158.75c16.91-13.85,36.17-26.11,57.31-32.24,22.89-6.64,44.92-3,67.17,4.22s44.42,14.14,67,20.4c41.31,11.48,83.69,23.89,117.76,51.08,15.08,12,28.21,26.69,37,44,10.5,20.63,13.3,43.87,13.5,66.74a468.82,468.82,0,0,1-5.18,72.63c-3.25,22-7,45-16.51,65.28-19.05,40.57-65.8,55.85-107.22,61.66-45.87,6.44-92.68.62-137.74-8.61-41.41-8.48-87.32-21.39-112.07-58.7-12.58-19-15.24-41.27-16-63.52-0.79-24.57-.3-49.19,1-73.73,2.72-50.14,9.08-100,16.15-149.7q2.58-18.12,5.24-36.22c0.46-3.15-4.36-4.51-4.82-1.33h0Z" transform="translate(-144.67 -117.68)" fill="var(--nav-logo-color)"/></svg>