<svg id="Layer_1" data-name="Layer 1" xmlns="http://www.w3.org/2000/svg" viewBox="0 0 792 409"><title>Untitled-1</title><path d="M210,137.93c-10.69.12-21.36,0.41-32,.93V361.51l32-.55v-223Z" transform="translate(-1 -102)" style="fill:none"/><path d="M220,360.79l60-1V139c-20-.67-40-1.16-60-1.12V360.79Z" transform="translate(-1 -102)" style="fill:none"/><path d="M40.42,169.5l3.44-3.24A36.23,36.23,0,0,0,40.42,169.5Z" transform="translate(-1 -102)" style="fill:none"/><path d="M105,362.77l57-1v-222a549.59,549.59,0,0,0-57,6.92v216Z" transform="translate(-1 -102)" style="fill:none"/><path d="M417,332.58a385.92,385.92,0,0,1,49-4.27V143.1q-24.5-.08-49-0.35V332.58Z" transform="translate(-1 -102)" style="fill:none"/><path d="M673,146.92a330.61,330.61,0,0,0-40-3.41V320.4a224.17,224.17,0,0,0,40-5.26V146.92Z" transform="translate(-1 -102)" style="fill:none"/><path d="M473,328.31a194.74,194.74,0,0,1,40,4.45V143.15q-20,0-40,0V328.31Z" transform="translate(-1 -102)" style="fill:none"/><path d="M616,143.19q-6.71-.06-13.41-0.07c-25.86-.05-51.72,0-77.59,0V334.25c5.51-5.21,13.38-7.38,20.91-8.79,23-4.32,46.6-4,70.09-4.48V143.19Z" transform="translate(-1 -102)" style="fill:none"/><path d="M43.85,166.27a42.66,42.66,0,0,1,5.75-4c0.37-.82.73-1.65,1.11-2.47Z" transform="translate(-1 -102)" style="fill:none"/><path d="M397,142.47q-15-.24-30-0.6V344c5.13-3.24,11.85-5.29,17.77-6.29q6.1-1,12.23-2.05V142.47Z" transform="translate(-1 -102)" style="fill:none"/><path d="M763,193.06c-17.89-22.47-45-36.09-73-42.8V310a105.25,105.25,0,0,0,24-12.59c21.65-15.38,35.66-39,48.84-62.1,4.73-8.28,9.6-17.43,8-26.83C769.9,202.72,766.59,197.63,763,193.06Z" transform="translate(-1 -102)" style="fill:none"/><path d="M90,149.67q-8.85,1.88-17.65,4.13c-7.82,2-15.85,4.43-22.75,8.47-26.51,58.81-30,127.67-9.49,188.84,1.22,3.65,2.68,7.48,5.75,9.8,3.55,2.69,8.37,2.73,12.81,2.65L90,363V149.67Z" transform="translate(-1 -102)" style="fill:none"/><path d="M359,354V141.68q-9.53-.25-19.06-0.55c-13.95-.45-27.93-1-41.94-1.51V359.44l60.89-1A12.24,12.24,0,0,1,359,354Z" transform="translate(-1 -102)" style="fill:none"/><path d="M1,102V511H793V102H1Zm632,41.52a330.61,330.61,0,0,1,40,3.41V315.14a224.17,224.17,0,0,1-40,5.26V143.52Zm-120-.36v189.6a194.74,194.74,0,0,0-40-4.45V143.12Q493,143.17,513,143.15ZM466,328.31a385.92,385.92,0,0,0-49,4.27V142.75q24.5,0.28,49,.35V328.31ZM280,139V359.75l-60,1V137.86C240,137.82,260,138.31,280,139Zm-102-.12c10.64-.52,21.31-0.81,32-0.93V361l-32,.55V138.86ZM162,361.79l-57,1v-216a549.59,549.59,0,0,1,57-6.92v222Zm-116.14-.87c-3.07-2.32-4.52-6.16-5.75-9.8-20.53-61.17-17-130,9.49-188.84a42.66,42.66,0,0,0-5.75,4l-3.44,3.24a36.23,36.23,0,0,1,3.44-3.24l6.85-6.46c-0.38.82-.74,1.65-1.11,2.47,6.91-4,14.93-6.45,22.75-8.47q8.79-2.27,17.65-4.13V363l-31.33.54C54.23,363.64,49.41,363.6,45.86,360.92ZM298,359.44V139.61c14,0.52,28,1.06,41.94,1.51q9.53,0.31,19.06.55V354a12.24,12.24,0,0,0-.11,4.35ZM367,344V141.88q15,0.36,30,.6V335.68q-6.14,1-12.23,2.05C378.85,338.74,372.13,340.79,367,344Zm158-9.78V143.14c25.86,0,51.73-.08,77.59,0q6.7,0,13.41.07V321c-23.48.49-47,.16-70.09,4.48C538.38,326.87,530.51,329,525,334.25Zm237.83-98.93C749.66,258.38,735.65,282,714,297.42A105.25,105.25,0,0,1,690,310V150.26c27.94,6.71,55.06,20.33,73,42.8,3.64,4.57,7,9.67,7.92,15.43C772.43,217.89,767.56,227,762.83,235.32Z" transform="translate(-1 -102)" style="fill:#70abdc"/></svg>