<svg id="Layer_1" data-name="Layer 1" xmlns="http://www.w3.org/2000/svg" viewBox="0 0 792 409"><title>Untitled-3</title><path d="M117,168.49l-2.09.09c-7.77.35-17.32,2-19.73,9.36-0.84,2.58-.68,5.66-2.58,7.6-1.61,1.65-4.15,1.85-6.45,2L47,189.33q-1.26,78.74,1.67,157.47c0.32,8.51.94,17.73,6.51,24.18,3.31,3.83,8,6.18,12.52,8.42L117,403.76V168.49Z" transform="translate(-1 -102)" style="fill:none"/><path d="M282,161.45q-69,2.67-138,5.83V417c15,7.16,30.3,13.73,46.38,17.85,18.63,4.77,39.13,6,56.43-2.41a135.63,135.63,0,0,0,35.19,9.6V161.45Z" transform="translate(-1 -102)" style="fill:none"/><path d="M42.95,189.52l4.09-.19c0.07-4.11.12-8.23,0.2-12.34Z" transform="translate(-1 -102)" style="fill:none"/><path d="M530,155.09c-72.34.6-144.68,2.57-217,5.19V442.62c2-.19,3.92-0.41,5.87-0.68,16.83-2.38,33.07-7.91,49.8-10.88,31.26-5.55,63.3-2.07,95-1.41A531.9,531.9,0,0,0,530,426.87V155.09Z" transform="translate(-1 -102)" style="fill:none"/><path d="M720.79,175.34C703.45,157.62,676,155.9,651.16,155.5q-42.08-.68-84.16-0.59V421.68q6.6-1.16,13.17-2.49c21.55-4.36,43.52-10.09,65.24-6.65,7,1.11,15.13,2.88,20.47-1.81,3.41-3,4.49-7.75,6.05-12,9.07-24.72,36.83-36.56,53.92-56.59,27.31-32,23.73-79.62,14.94-120.78C737.25,204.77,732.65,187.46,720.79,175.34Z" transform="translate(-1 -102)" style="fill:none"/><path d="M1,102V511H793V102H1ZM55.22,371c-5.57-6.45-6.19-15.67-6.51-24.18Q45.77,268.11,47,189.33l-4.09.19L47.25,177c-0.08,4.11-.14,8.23-0.2,12.34l39.11-1.83c2.3-.11,4.84-0.32,6.45-2,1.9-1.94,1.74-5,2.58-7.6,2.41-7.39,12-9,19.73-9.36l2.09-.09V403.76L67.74,379.4C63.2,377.15,58.53,374.81,55.22,371Zm135.16,63.89C174.3,430.75,159,424.19,144,417V167.28q69-3.07,138-5.83V442.06a135.63,135.63,0,0,1-35.19-9.6C229.51,440.83,209,439.64,190.38,434.87Zm273.34-5.23c-31.74-.66-63.79-4.14-95,1.41-16.74,3-33,8.5-49.8,10.88-1.95.28-3.91,0.49-5.87,0.68V160.28c72.32-2.63,144.66-4.6,217-5.19V426.87A531.9,531.9,0,0,1,463.72,429.64Zm262.14-87.5c-17.09,20-44.85,31.87-53.92,56.59-1.56,4.26-2.65,9-6.05,12-5.33,4.69-13.45,2.92-20.47,1.81-21.72-3.44-43.69,2.29-65.24,6.65q-6.57,1.33-13.17,2.49V154.9q42.08-.06,84.16.59c24.79,0.4,52.29,2.12,69.63,19.84,11.86,12.12,16.46,29.43,20,46C749.59,262.51,753.17,310.12,725.85,342.14Z" transform="translate(-1 -102)" style="fill:#150e37"/></svg>